HIERARCHY
ROOT Hips
{
	OFFSET 0.000000 0.000000 0.000000 
	CHANNELS 6 Xposition Yposition Zposition Yrotation Zrotation Xrotation 
	JOINT Lumbar
	{
		OFFSET 0.000000 0.000000 0.000000 
		CHANNELS 3 Zrotation Xrotation Yrotation
		JOINT Neck
		{
			OFFSET 0.000000 0.445665 0.000000 
			CHANNELS 3 Zrotation Xrotation Yrotation
			End Site
			{
				OFFSET 0.000000 0.227535 0.000000 
			}
		}
		JOINT RightShoulder
		{
			OFFSET 0.019635 0.377685 0.194865 
			CHANNELS 3 Zrotation Xrotation Yrotation
			JOINT RightElbow
			{
				OFFSET 0.000000 -0.243375 0.000000 
				CHANNELS 2 Zrotation Yrotation
				JOINT RightWrist
				{
					OFFSET 0.000000 -0.264825 0.000000 
					CHANNELS 2 Zrotation Xrotation
					End Site
					{
						OFFSET 0.006600 -0.176220 0.000990 
					}
				}
			}
		}
		JOINT LeftShoulder
		{
			OFFSET 0.019635 0.377685 -0.194865 
			CHANNELS 3 Zrotation Xrotation Yrotation
			JOINT LeftElbow
			{
				OFFSET 0.000000 -0.243375 0.000000 
				CHANNELS 2 Zrotation Yrotation
				JOINT LeftWrist
				{
					OFFSET 0.000000 -0.264825 0.000000 
					CHANNELS 2 Zrotation Xrotation
					End Site
					{
						OFFSET 0.006600 -0.176220 -0.000990 
					}
				}
			}
		}
	}
	JOINT RightHip
	{
		OFFSET 0.052140 -0.069960 0.075570 
		CHANNELS 3 Zrotation Xrotation Yrotation
		JOINT RightKnee
		{
			OFFSET 0.000000 -0.402270 0.000000 
			CHANNELS 1 Zrotation
			JOINT RightAnkle
			{
				OFFSET 0.000000 -0.404085 0.000000 
				CHANNELS 3 Zrotation Xrotation Yrotation
				End Site
				{
					OFFSET 0.204105 -0.089430 0.008415 
				}
			}
		}
	}
	JOINT LeftHip
	{
		OFFSET 0.052140 -0.069960 -0.075570 
		CHANNELS 3 Zrotation Xrotation Yrotation
		JOINT LeftKnee
		{
			OFFSET 0.000000 -0.402270 0.000000 
			CHANNELS 1 Zrotation
			JOINT LeftAnkle
			{
				OFFSET 0.000000 -0.404085 0.000000 
				CHANNELS 3 Zrotation Xrotation Yrotation
				End Site
				{
					OFFSET 0.204105 -0.089430 -0.008415 
				}
			}
		}
	}
}
MOTION
Frames: 22
Frame Time: 0.02
0.00073 8e-05 0.00019 -538.26566 -42.13457 -3.06284 49.97799 1.27025 -3.91869 -1.3432 0.09264 -0.4205 -21.04314 -9.02698 -2.29293 35.21254 90.00582 3.81492 0.78525 -34.3645 11.02948 -0.86841 44.54004 -100.93377 10.2364 -1.61108 47.22783 -0.82961 0.24176 -19.49034 -7.06508 -4.52034 -3.05909 49.88642 5.71468 4.08681 -24.97652 -6.9802 3.98659 2.72756
0.00041 7e-05 0.00024 -538.20964 -42.122 -3.05084 49.98534 1.26859 -3.90366 -1.28629 0.07136 -0.42081 -20.93714 -9.01298 -2.13328 35.23451 89.93569 3.8165 0.7884 -33.85716 10.97393 -1.04021 44.68069 -100.87458 10.22054 -1.60346 47.18455 -0.91804 -0.24437 -19.49079 -7.03713 -4.47987 -3.02994 49.85927 5.70842 4.08657 -24.97797 -6.97547 3.9808 2.72585
0.0001 6e-05 0.00028 -538.15375 -42.10949 -3.03888 49.99266 1.26692 -3.88886 -1.22939 0.05013 -0.42113 -20.83115 -8.99903 -1.97384 35.25643 89.86619 3.81835 0.79153 -33.35047 10.91891 -1.21258 44.82114 -100.81602 10.2052 -1.59582 47.14141 -1.00621 -0.72914 -19.49125 -7.00924 -4.43951 -3.00087 49.83222 5.70221 4.08649 -24.97942 -6.97076 3.97502 2.72414
-0.00022 5e-05 0.00032 -538.0979 -42.09696 -3.02692 50 1.26526 -3.8739 -1.17265 0.02892 -0.42144 -20.72543 -8.98506 -1.81465 35.27832 89.79635 3.81998 0.79467 -32.84455 10.8636 -1.38406 44.96141 -100.7571 10.18948 -1.58822 47.09826 -1.09437 -1.21379 -19.49171 -6.98137 -4.39916 -2.9718 49.80515 5.69597 4.0863 -24.98086 -6.96605 3.96925 2.72244
-0.00054 4e-05 0.00037 -538.04194 -42.08439 -3.01492 50.00734 1.26362 -3.85867 -1.11594 0.00767 -0.42175 -20.61983 -8.97105 -1.65534 35.30029 89.72569 3.82124 0.79783 -32.33831 10.80759 -1.55447 45.10176 -100.69732 10.17302 -1.58065 47.05497 -1.18278 -1.69975 -19.49214 -6.95343 -4.3587 -2.94265 49.77798 5.68966 4.08585 -24.9823 -6.96133 3.96347 2.72074
-0.00085 3e-05 0.00041 -537.9862 -42.072 -3.00302 50.01459 1.26187 -3.84477 -1.05863 -0.01354 -0.42207 -20.51301 -8.95724 -1.49562 35.32209 89.65861 3.82431 0.80092 -31.83071 10.75466 -1.73091 45.24241 -100.64131 10.16 -1.57286 47.01215 -1.27042 -2.18197 -19.49266 -6.92567 -4.31854 -2.91377 49.75118 5.68366 4.08654 -24.98375 -6.95661 3.95769 2.719
-0.00117 2e-05 0.00045 -537.9301 -42.05925 -2.99095 50.0221 1.26034 -3.82819 -1.00264 -0.0348 -0.42237 -20.40876 -8.94299 -1.33698 35.34416 89.5845 3.82378 0.80414 -31.32644 10.69564 -1.89525 45.38234 -100.57792 10.14021 -1.56551 46.96843 -1.35952 -2.67117 -19.49303 -6.89757 -4.27783 -2.88438 49.72365 5.67706 4.08501 -24.9852 -6.9519 3.95193 2.71734
-0.00148 1e-05 0.0005 -537.87427 -42.04683 -2.97902 50.02924 1.2586 -3.8141 -0.94534 -0.056 -0.4227 -20.30214 -8.92923 -1.1772 35.36607 89.51672 3.82649 0.80724 -30.81902 10.64216 -2.07034 45.52286 -100.52106 10.12641 -1.55778 46.92555 -1.44728 -3.15399 -19.49351 -6.86979 -4.23763 -2.85545 49.69683 5.67098 4.08538 -24.98663 -6.94719 3.94615 2.71561
-0.00179 0 0.00054 -537.819 -42.03483 -2.9673 50.03643 1.25663 -3.80303 -0.88675 -0.07718 -0.42301 -20.19253 -8.91576 -1.01644 35.38745 89.45731 3.83352 0.81021 -30.30768 10.59582 -2.26042 45.66451 -100.47335 10.12099 -1.54951 46.88364 -1.53343 -3.62902 -19.49421 -6.84238 -4.19804 -2.82709 49.67073 5.66568 4.08871 -24.9881 -6.94245 3.94032 2.7138
-0.00213 -0 0.00059 -537.76118 -42.02046 -2.95449 50.04484 1.25608 -3.77452 -0.83653 -0.09863 -0.42327 -20.09985 -8.89968 -0.86255 35.41084 89.35165 3.81679 0.81397 -29.81868 10.50949 -2.36985 45.80092 -100.37649 10.07054 -1.5441 46.83597 -1.6289 -4.1489 -19.4939 -6.81278 -4.15489 -2.79548 49.64003 5.6563 4.07694 -24.98952 -6.93778 3.93471 2.71244
-0.0024 -2e-05 0.00062 -537.70834 -42.01106 -2.94392 50.04972 1.2525 -3.78279 -0.76809 -0.11945 -0.42375 -19.97168 -8.8897 -0.69346 35.43066 89.34228 3.84945 0.81604 -29.28281 10.50679 -2.64575 45.9475 -100.38109 10.11304 -1.5328 46.80059 -1.70467 -4.57407 -19.49555 -6.78785 -4.11926 -2.77071 49.61933 5.65528 4.09577 -24.99095 -6.93306 3.92867 2.71017
-0.00249 -5e-05 0.00057 -537.67226 -42.01587 -2.93998 50.05203 1.24071 -3.89292 -0.65329 -0.13912 -0.4239 -19.74315 -8.89212 -0.48735 35.43589 89.61015 4.02525 0.81357 -28.61441 10.7424 -3.41381 46.1299 -100.68505 10.43001 -1.50409 46.79872 -1.72638 -4.73812 -19.50391 -6.77541 -4.10454 -2.76486 49.62468 5.6796 4.21 -24.9933 -6.92746 3.92116 2.70499
-0.00249 -9e-05 0.00049 -537.64046 -42.02571 -2.93819 50.04906 1.22591 -4.03962 -0.51927 -0.15808 -0.42444 -19.47965 -8.90179 -0.26471 35.43888 89.97206 4.24919 0.80939 -27.89965 11.06049 -4.34252 46.32127 -101.08679 10.83652 -1.46969 46.80956 -1.72837 -4.80768 -19.51396 -6.76776 -4.09731 -2.76581 49.64072 5.71191 4.35301 -24.99551 -6.922 3.91324 2.69895
-0.00251 -0.00012 0.00043 -537.60482 -42.03271 -2.93513 50.0444 1.21236 -4.16924 -0.39202 -0.17698 -0.42542 -19.23397 -8.91056 -0.0471 35.44545 90.28271 4.44622 0.80594 -27.20861 11.3349 -5.17466 46.50306 -101.43042 11.18968 -1.43869 46.81432 -1.73929 -4.9208 -19.52237 -6.75809 -4.08654 -2.76354 49.6523 5.73899 4.47517 -24.9972 -6.91691 3.90573 2.69358
-0.00262 -0.00018 0.00038 -537.5777 -42.04146 -2.93336 50.05874 1.19911 -4.30166 -0.27408 -0.19742 -0.4238 -18.97966 -8.90791 0.15841 35.43931 90.63043 4.66484 0.80267 -26.50622 11.63507 -6.10657 46.70714 -101.83296 11.59735 -1.40423 46.81906 -1.75004 -5.02956 -19.5345 -6.74762 -4.07649 -2.76192 49.66065 5.77272 4.62948 -25.0013 -6.90981 3.8974 2.68708
-0.00251 -0.00019 0.00029 -537.53319 -42.04849 -2.92933 50.03007 1.18477 -4.43594 -0.13086 -0.21457 -0.42767 -18.73555 -8.93244 0.39512 35.46147 90.92209 4.84962 0.79866 -25.81659 11.90188 -6.86877 46.86811 -102.13475 11.91159 -1.37567 46.82854 -1.75681 -5.12696 -19.53925 -6.74013 -4.06656 -2.76048 49.68023 5.79464 4.72452 -25.00044 -6.90715 3.89054 2.68266
-0.00197 -0.0001 0.00012 -537.44527 -42.04387 -2.91936 49.90209 1.16616 -4.57461 0.06596 -0.22218 -0.44683 -18.52394 -9.0158 0.69584 35.5421 91.04592 4.93153 0.79257 -25.17332 12.04978 -7.12198 46.89756 -102.14379 11.95481 -1.36433 46.83413 -1.75457 -5.19883 -19.52369 -6.73814 -4.05659 -2.75862 49.71215 5.78093 4.6414 -24.98525 -6.91473 3.88875 2.68481
-0.00119 3e-05 -9e-05 -537.33858 -42.03868 -2.90693 49.72737 1.14697 -4.71225 0.28983 -0.22668 -0.47144 -18.32458 -9.12898 1.03059 35.65498 91.10853 4.97734 0.78583 -24.54486 12.16258 -7.19898 46.88529 -102.0459 11.89908 -1.35915 46.84714 -1.74941 -5.26528 -19.50073 -6.7393 -4.04629 -2.75663 49.7585 5.75537 4.49915 -24.96525 -6.92715 3.88823 2.68893
-0.00043 0.00015 -0.00029 -537.23688 -42.03716 -2.89504 49.56249 1.12933 -4.84513 0.50864 -0.23298 -0.49341 -18.12244 -9.23798 1.36181 35.76651 91.19219 5.03804 0.77974 -23.90938 12.29562 -7.35728 46.89878 -101.99129 11.88296 -1.35153 46.86516 -1.74763 -5.34626 -19.4806 -6.73997 -4.03509 -2.75418 49.80818 5.7358 4.38867 -24.94779 -6.93859 3.88655 2.69174
-7e-05 0.00023 -0.00043 -537.1506 -42.02036 -2.8855 49.44663 1.10601 -5.00182 0.69694 -0.23743 -0.51613 -17.90748 -9.30763 1.64388 35.82221 91.30638 5.10657 0.77228 -23.27226 12.41299 -7.51605 46.8836 -101.96411 11.89314 -1.34244 46.84608 -1.73705 -5.37514 -19.46202 -6.73665 -4.02825 -2.75396 49.81451 5.71354 4.25798 -24.92857 -6.9448 3.88747 2.69635
0.00119 0.00041 -0.00071 -537.02729 -42.03649 -2.87068 49.21628 1.09461 -5.10763 0.95576 -0.24523 -0.53854 -17.7224 -9.46629 2.03537 36.00136 91.34289 5.14993 0.76733 -22.64423 12.55414 -7.62989 46.91845 -101.85116 11.82319 -1.33764 46.90858 -1.74367 -5.50976 -19.43937 -6.74254 -4.01257 -2.7492 49.91691 5.69447 4.15562 -24.91221 -6.96316 3.88306 2.69759
0.00473 0.00088 -0.00129 -536.80929 -42.13266 -2.83956 48.6927 1.11467 -5.07789 1.39579 -0.26144 -0.55908 -17.61874 -9.86275 2.72742 36.51798 91.16486 5.12927 0.77137 -22.02498 12.7649 -7.66393 47.0981 -101.54126 11.56057 -1.34512 47.17156 -1.80478 -5.96179 -19.39926 -6.77111 -3.96912 -2.73005 50.25989 5.68269 4.14019 -24.90185 -7.01305 3.86539 2.68982
